<?xml version="1.0" encoding="UTF-8"?>
<svg width="81.161mm" height="115.52mm" version="1.1" viewBox="0 0 81.161 115.52" xmlns="http://www.w3.org/2000/svg">
 <g transform="translate(-56.713 -58.475)" fill-rule="evenodd">
  <path d="m95.465 61.749c-11.081 11.475 1.9096 28.493-3.6311 29.831 0 1e-3 -6.8773-10.9-14.711-9.7524 12.21 16.295 5.128 26.508 5.1595 26.393-7.6421-9.5618-17.478-9.7675-15.284-8.2239 9.168 6.4469 6.3043 23.715 6.3043 23.715s-9.744-8.4158-14.329-4.016c12.455 6.3257 7.0704 13.577 6.8785 22.375-0.42028 17.47 9.462 24.248 11.639 25.946 2.9905 2.3326 13.423 4.6528 19.918 4.6528s15.134-1.6384 21.033-4.8642c5.1626-2.8232 16.938-8.5066 18.099-27.264 0 0 0.37611-10.919-3.2474-15.301-0.95542 4.016-3.4405 4.3985-3.4405 4.3985-1.5284 0.19057 2.1027-9.014 2.1027-13.002 0-9.1819-6.4961-12.624-6.4961-12.624s1.5297 10.135-4.2016 13.386c-1.151-2.3816 3.3156-28.472-12.992-33.658 4.2028 8.6051 3.2474 11.858 3.2474 11.858s-0.41018 4.3543-0.573 3.2512c-1.2482-8.4612-8.7894-16.638-8.7894-16.638s-4.1877-3.6324-6.6854-20.461z" fill="#c00e00" stroke="#000" stroke-width="2.6458"/>
  <path d="m109.69 114.57c2.7992 3.9684 0 23.808 0 23.808 4.6648-1.4004 10.203-10.553 11.428-11.905 1.5359-1.6946 0.69941 11.44-4.8974 17.043 6.0389-1.3757 9.0938-6.3039 9.0938-6.3039s-2.2138 21.87-27.982 28.711c-4.6648 2.8007-29.263-12.505-15.858-36.181 4.4306 20.776 12.127 20.776 12.127 20.776s-5.8294-18.674-0.69941-24.276c0 0 2.7452 9.9458 8.1618 10.736 3.2644-15.872 8.627-22.407 8.627-22.407z" fill="#e87a00"/>
 </g>
</svg>
