<?xml version="1.0" encoding="UTF-8"?>
<svg width="56.885mm" height="92.604mm" version="1.1" viewBox="0 0 56.885 92.604" xmlns="http://www.w3.org/2000/svg">
 <g transform="translate(-150.91 -67.313)" stroke-width=".16336">
  <path d="m196.65 67.313h9.0769l1.0356 2.7072 1.0355 2.7073v84.015h-2.9817l-0.59885 1.5875-0.59885 1.5875h-48.527l-0.59885-1.5875-0.59884-1.5875h-2.9817v-84.015l2.0711-5.4145h9.0768z"/>
  <path d="m156.9 154.87-0.69126-1.8709c-0.79971 0.0388-1.0588 0.0612-1.0588 0.0612l-0.0272-5.4007-0.0272-5.4007c-0.20039-0.50363-0.40079-1.0073-0.60118-1.5109v-52.454c0.20039-0.50363 0.40079-1.0073 0.60118-1.5109l0.0272-5.4456 0.0272-7.9238 1.1722-0.1428 0.57596-1.577h44.908l0.57596 1.577 1.1722 0.1428 0.0272 7.9238 0.0272 5.4456c0.2004 0.50363 0.40078 1.0073 0.60117 1.5109v52.454c-0.20039 0.50363-0.40077 1.0073-0.60117 1.5109l-0.0272 5.4007-0.0272 5.4007s-0.25905-0.0224-1.0588-0.0612l-0.69126 1.8709z" fill="#d7d7f4"/>
 </g>
</svg>
