<?xml version="1.0" encoding="UTF-8"?>
<svg width="51.594mm" height="59.515mm" version="1.1" viewBox="0 0 51.594 59.515" xmlns="http://www.w3.org/2000/svg">
 <g transform="translate(-22.814 -45.549)">
  <path d="m24.666 104.01c0-1.0331-0.02205-1.0583-0.92604-1.0583h-0.92604v-13.494h0.92604c0.88194 0 0.92604-0.0441 0.92604-0.92604v-0.92604h7.8312l-0.10811 0.92604c-0.10806 0.92564-0.10764 0.92604 0.97917 0.92604h1.0873v13.462l-0.99219 0.0821c-0.93831 0.0777-0.99665 0.13599-1.0743 1.0743l-0.08212 0.99219h-7.641zm5.871-1.7859c0.07766-0.93831 0.136-0.99665 1.0743-1.0743l0.99219-0.0821v-9.7576h-1.0583c-1.0331 0-1.0583-0.022-1.0583-0.92605v-0.92604h-3.9688v0.92604c0 0.88195-0.0441 0.92605-0.92604 0.92605h-0.92604v9.7896h0.92604c0.87312 0 0.92604 0.0504 0.92604 0.88194 0 0.48507 0.07937 0.96132 0.17639 1.0583 0.09701 0.097 0.9828 0.17639 1.9684 0.17639h1.792zm7.8873 1.8935c0-0.7283-0.12384-0.9832-0.52917-1.0892-0.39763-0.10399-0.52917-0.3609-0.52917-1.0336 0-0.61933-0.1223-0.89518-0.39688-0.89518-0.3424 0-0.39688-0.92604-0.39688-6.7469v-6.7469h1.8521v5.8208c0 4.9977 0.05612 5.8208 0.39688 5.8208 0.27718 0 0.39688 0.27928 0.39688 0.92604 0 0.74965 0.10079 0.92604 0.52917 0.92604 0.44097 0 0.52917 0.17639 0.52917 1.0583v1.0583h3.9688v-1.0583c0-0.88194 0.0882-1.0583 0.52916-1.0583 0.42838 0 0.52917-0.17639 0.52917-0.92604 0-0.64676 0.11969-0.92604 0.39688-0.92604 0.34075 0 0.39687-0.82315 0.39687-5.8208v-5.8208h2.1167v6.7469c0 6.5705-0.0138 6.7469-0.52917 6.7469-0.4249 0-0.52917 0.17639-0.52917 0.89518 0 0.67267-0.13153 0.92958-0.52916 1.0336-0.40533 0.10599-0.52917 0.36089-0.52917 1.0892v0.95081h-7.6729zm11.642-7.7804v-8.7312h10.583v1.8521h-8.7312v5.8208h7.9375v1.8521h-7.9375v6.0854h8.7312v1.8521h-10.583zm12.7 0v-8.7312h9.7896v0.92604c0 0.88195 0.0441 0.92604 0.92605 0.92604h0.92604v6.8792h-0.92604c-0.88195 0-0.92605 0.0441-0.92605 0.92604v0.92604h-2.4136c-1.9883 0-2.3618 0.0625-2.1192 0.35481 0.16196 0.19515 1.6648 1.4116 3.3397 2.7031 2.5921 1.9989 3.0452 2.4579 3.0452 3.0848 0 0.6653-0.0895 0.73648-0.92604 0.73648-0.50933 0-0.92605-0.11307-0.92605-0.25128 0-0.1382-1.7562-1.622-3.9026-3.2973l-3.9026-3.046-0.0741 3.2973-0.074 3.2973h-1.8363zm7.9375-0.92604c0-0.88195 0.0441-0.92604 0.92604-0.92604h0.92604v-3.175h-0.92604c-0.88194 0-0.92604-0.0441-0.92604-0.92605v-0.92604h-6.0854v6.8792h6.0854zm-46.037-10.848c0-0.88194-0.0441-0.92604-0.92604-0.92604h-0.92604v-13.758h0.92604c0.88194 0 0.92604-0.0441 0.92604-0.92605v-0.92604h7.8312l-0.10811 0.92604c-0.10806 0.92565-0.10764 0.92605 0.97917 0.92605 1.0662 0 1.0873 0.0179 1.0873 0.92604v0.92604h-3.9688v-1.8521h-3.9688v0.92604c0 0.88194-0.0441 0.92604-0.92604 0.92604h-0.92604v10.054h0.92604c0.88194 0 0.92604 0.0441 0.92604 0.92604v0.92604h3.9688v-0.91007c0-0.86065 0.05388-0.91453 0.99219-0.99219l0.99219-0.08212 0.07774-1.9182 0.07774-1.9182h-3.9919v-2.1167h5.8208v7.9375h-1.0873c-1.0868 0-1.0872 5.3e-4 -0.97917 0.92604l0.10811 0.92604h-7.8312zm11.906-5.8208c0-5.8208 0.05447-6.7469 0.39688-6.7469 0.28663 0 0.39688-0.29398 0.39688-1.0583 0-0.88194 0.08819-1.0583 0.52917-1.0583 0.42837 0 0.52917-0.17639 0.52917-0.92605v-0.92604h7.6729v0.92604c0 0.74966 0.10079 0.92605 0.52917 0.92605 0.44097 0 0.52916 0.17639 0.52916 1.0583s0.0882 1.0583 0.52917 1.0583c0.51533 0 0.52917 0.17639 0.52917 6.7469v6.7469h-2.1167v-5.8208h-7.6729v5.8208h-1.8521zm9.525-2.9104c0-1.5875-0.0794-1.9844-0.39687-1.9844-0.27915 0-0.39688-0.28204-0.39688-0.95082 0-0.72829-0.12384-0.98319-0.52917-1.0892-0.39763-0.10398-0.52916-0.36089-0.52916-1.0336v-0.89518h-3.9688v0.89518c0 0.67267-0.13154 0.92958-0.52917 1.0336-0.40533 0.106-0.52917 0.3609-0.52917 1.0892 0 0.66878-0.11772 0.95082-0.39688 0.95082-0.3175 0-0.39688 0.39687-0.39688 1.9844v1.9844h7.6729zm3.9688 0.92604v-8.7312h3.6392l0.57499 2.3151c0.31623 1.2733 0.70596 2.7914 0.86605 3.3734l0.29107 1.0583 0.8338-3.3073 0.83381-3.3073 3.5444-0.1564v17.487h-1.8442l-0.0701-7.8714-0.0701-7.8714-2.053 8.096-1.2089-0.0792-1.2089-0.0793-0.93961-3.7512c-0.51679-2.0632-1.0289-3.8392-1.138-3.9467-0.10914-0.10749-0.19844 3.3367-0.19844 7.6539v7.8493h-1.8521zm12.7 0v-8.7312h10.583v1.8521h-8.7312v5.8067l7.8052 0.1464 0.1642 1.9844h-7.9694v5.8208h8.7312v1.8521h-10.583zm-29.369-10.716v-0.92604h3.9688v-7.0266c0-8.3403 0.11164-8.9852 1.8576-10.731 1.716-1.716 2.6748-1.8903 9.784-1.7785 6.1717 0.0971 6.4739 0.1616 8.047 1.7185 1.6501 1.6332 1.7304 2.1111 1.7368 10.343l6e-3 7.4745h3.9688v1.8521h-29.369zm23.548-8.2952c0-7.2066-0.0131-7.3885-0.59531-8.2439-0.32743-0.48108-0.93147-1.1238-1.3423-1.4282-0.70785-0.52448-1.0709-0.55349-6.9259-0.55349-5.828 0-6.2204 0.031-6.9096 0.54551-0.40186 0.30003-0.97614 0.87404-1.2762 1.2756-0.51609 0.69068-0.5499 1.1358-0.62677 8.2519l-0.08126 7.5218h17.757zm-9.7896-0.56829v-3.9688h-4.7625v-1.8521h4.7625v-0.92604c0-0.88194 0.0441-0.92604 0.92605-0.92604 0.88194 0 0.92604 0.0441 0.92604 0.92604v0.92604h5.0271v1.8521h-5.0271v7.9375h-1.8521z" stroke-width=".26458"/>
 </g>
</svg>
