<?xml version="1.0" encoding="UTF-8"?>
<svg width="49.169" height="56.753" version="1.1" viewBox="0 0 49.169 56.753" xmlns="http://www.w3.org/2000/svg" xmlns:xlink="http://www.w3.org/1999/xlink">
 <defs>
  <path id="0" d="m450.95 201.15c0 4.112-3.333 7.445-7.445 7.445s-7.445-3.333-7.445-7.445 3.333-7.445 7.445-7.445 7.445 3.333 7.445 7.445"/>
 </defs>
 <g transform="translate(-.16671 -17.75)">
  <path d="m46.545 57.16 0.902 8.721-6.917 6.616h-27.367l-9.323-3.91-1.804-8.721 6.917-11.428c17.638 11.336 25.904-5.67 37.592 8.721" fill="#f00"/>
  <path d="m16.998 20.53v19l-12.737 15.464c-2.098 2.547-2.717 6.185-1.864 9.379 0.047 0.175 0.095 0.349 0.151 0.521 0.042 0.13 0.086 0.26 0.133 0.388 0.015 0.042 0.031 0.085 0.046 0.127 0.054 0.141 0.108 0.279 0.168 0.417 1.604 3.822 5.319 6.563 9.715 6.803l6e-3 0.01h0.046c0.191 0.01 0.386 0.011 0.579 0.011s0.382 0 0.573-0.011h21.874c0.191 0.01 0.38 0.011 0.573 0.011s0.388 0 0.579-0.011h0.046l6e-3 -0.01c4.396-0.24 8.111-2.981 9.715-6.803 0.06-0.138 0.114-0.276 0.168-0.417 0.016-0.042 0.031-0.085 0.046-0.127 0.047-0.128 0.091-0.258 0.133-0.388 0.056-0.172 0.104-0.346 0.151-0.521 0.853-3.195 0.234-6.832-1.864-9.379l-12.737-15.464v-19h-15.504z" fill="none" stroke="#262626" stroke-width="3.705"/>
  <path d="m12.699 17.75h24.1v3.554h-24.1z" color="#000000" fill="#262626"/>
  <path d="m29.437 49.157c-1.977 0-3.594 1.585-3.594 3.563 0 1.977 1.617 3.594 3.594 3.594s3.562-1.617 3.562-3.594-1.585-3.563-3.563-3.563m5.531 10.875c-1.056 0-1.906 0.85-1.906 1.906s0.85 1.906 1.906 1.906 1.938-0.85 1.938-1.906-0.881-1.906-1.938-1.906" fill="#faa"/>
  <use transform="matrix(.35968 0 0 .35968 -140.52 -21.86)" width="100%" height="100%" fill="#ff5555" xlink:href="#0"/>
  <use transform="matrix(.56521 0 0 .56521 -236.78 -52.81)" width="100%" height="100%" fill="#ffaaaa" xlink:href="#0"/>
  <use transform="matrix(-.56521 0 0 -.56521 275.25 152.63)" width="100%" height="100%" fill="#ffaaaa" xlink:href="#0"/>
 </g>
</svg>
