<?xml version="1.0" encoding="UTF-8"?>
<svg width="158.75mm" height="185.21mm" version="1.1" viewBox="0 0 158.75 185.21" xmlns="http://www.w3.org/2000/svg">
 <rect x="5.7921" y="8.879" width="147.17" height="167.45" fill="#fff" stop-color="#000000" stroke-linecap="square" stroke-width="1.3256"/>
 <path transform="scale(.26458)" d="m44.098-0.015625-12.633 24h-31.449v635.07l21.846 40.93h556.31l21.846-40.93v-635.07h-31.451l-12.633-24h-161.9l-13.045 24h-161.94l-13.047-24h-161.9zm19.092 38.162h473.64l7.291 14.143c8.4354-0.29322 11.168-0.46289 11.168-0.46289l0.2871 40.824 0.28711 40.824c2.1137 3.8067 4.2262 7.6149 6.3398 11.422v396.5c-2.1137 3.8067-4.2261 7.6149-6.3398 11.422l-0.28711 41.162-0.2871 41.164-12.365 1.0801-6.0742 11.92h-473.68l-6.0742-11.92-12.365-1.0801-0.28711-41.164-0.28711-41.162c-2.1136-3.8067-4.2262-7.6149-6.3398-11.422v-396.5c2.1137-3.8067 4.2262-7.6149 6.3398-11.422l0.57422-81.648s2.7329 0.16968 11.168 0.46289l7.291-14.143z" stroke-width="1.4586"/>
</svg>
