<?xml version="1.0" encoding="UTF-8"?>
<svg width="44.954mm" height="57.844mm" version="1.1" viewBox="0 0 44.954 57.844" xmlns="http://www.w3.org/2000/svg">
 <g transform="translate(-118.97 -67.918)">
  <g transform="translate(106.67 19.872)" fill-rule="evenodd">
   <path d="m13.095 66.866c-0.17462-8.6942 18.492-7.9957 22.709-16.576 2.1511 7.9957 21.254 8.427 20.643 16.576-2.5109 33.464-22.709 38.203-22.709 38.203s-19.989-5.9002-20.643-38.203z" fill="#ac9393" stroke="#000" stroke-width="1.5875"/>
   <path d="m22.228 90.959s9.5091 5.6621 13.584 4.3524c8.98-2.8866 18.74-25.252 18.74-25.252s-4.019 14.105-7.5089 19.219c-2.9422 4.3127-7.5671 11.684-12.787 11.803-4.7149 0.10848-12.028-10.123-12.028-10.123z" fill="#635555"/>
   <path d="m17.206 73.552c-2.6141-1.8574 0.49212-8.2894 3.0295-10.255 2.8046-2.1722 10.679-3.7677 11.824-0.40746 1.7701 5.1911-10.38 13.838-14.854 10.663z" fill="#fff"/>
  </g>
 </g>
</svg>
