<?xml version="1.0" encoding="UTF-8"?>
<!-- Created with Inkscape (http://www.inkscape.org/) -->
<svg width="50" height="50" version="1.1" viewBox="0 0 13.229 13.229" xmlns="http://www.w3.org/2000/svg">
 <g transform="translate(-74.099 -45.56)">
  <path d="m78.339 58.76c-0.20549-0.05914-0.42284-0.2837-0.45634-0.47149-0.0079-0.04415-0.01098-2.8243-0.0069-6.1782l0.0074-6.0979 0.07166-0.12191c0.10986-0.18689 0.35343-0.32967 0.56316-0.33012 0.11458-2.43e-4 0.32834 0.07582 0.41283 0.14692 0.19849 0.16702 0.25721 0.36754 0.25721 0.87831v0.31824h3.0428l0.01134-0.40696c0.0099-0.35406 0.01914-0.42474 0.07135-0.54374 0.18706-0.42639 0.73479-0.51863 1.0642-0.17922 0.19456 0.20048 0.17909-0.3813 0.17122 6.4398l-7e-3 6.1238-0.07166 0.12191c-0.10986 0.18689-0.35343 0.32967-0.56316 0.33013-0.12904 2.8e-4 -0.33792-0.08093-0.43594-0.16948-0.0543-0.04906-0.12578-0.15014-0.15885-0.22463-0.05506-0.12403-0.06098-0.17951-0.07034-0.65867l-0.01024-0.52323h-3.0437v0.43451c0 0.49154-0.02824 0.69212-0.11729 0.83319-0.15256 0.24168-0.4573 0.35781-0.73168 0.27884zm0.32429-0.47196 0.0725-0.06232 8e-3 -0.72576 8e-3 -0.72576h3.9215l8e-3 0.72576 8e-3 0.72576 0.0725 0.06232c0.09306 0.07999 0.19845 0.0796 0.28547-0.0011l0.06837-0.06336v-12.097l-0.06837-0.06336c-0.08702-0.08065-0.19242-0.08103-0.28547-0.0011l-0.0725 0.06231-0.0162 1.219h-3.9207l-0.0162-1.219-0.0725-0.06231c-0.09475-0.08144-0.2083-0.08101-0.29042 0.0011l-0.06342 0.06342v12.097l0.06342 0.06342c0.08212 0.08212 0.19567 0.08255 0.29042 0.0011zm0.08542-2.8316v-0.87852h3.9275v1.757h-3.9275zm3.4882 0v-0.43926h-3.049v0.87852h3.049zm-3.4882-2.1798v-0.86197l0.35528-0.0137c0.19541-0.0075 1.0762-0.01209 1.9573-0.01007l1.602 0.0036 0.0136 1.7441h-3.9282zm3.4882-0.01655v-0.43926h-3.049v0.87852h3.049zm-3.4882-2.2996v-0.98187h3.9275v1.9637h-3.9275zm3.4882 0.01291v-0.55553h-3.049v1.1111h3.049zm-3.4882-2.3126v-0.87852h3.9275v1.757h-3.9275zm3.4882 0v-0.43926h-3.049v0.87852h3.049z" stroke-width=".025839"/>
 </g>
</svg>
