<?xml version="1.0" encoding="UTF-8"?>
<svg width="45.146mm" height="57.569mm" version="1.1" viewBox="0 0 45.146 57.569" xmlns="http://www.w3.org/2000/svg">
 <g transform="translate(-87.992 -63.48)">
  <g transform="matrix(.18798 0 0 .18798 65.986 2.2782)" stroke="#000" stroke-width="8.4452">
   <g transform="matrix(.99281 .11967 -.11967 .99281 64.196 -31.622)" stroke-width="8.4452">
    <path d="m313.08 328.01-25.18 43.63-23.36-13.49-12.87 18.23 25.12 14.5-6.63 11.48-130.93 198.21-2.68 44.64 42.25-21.8 110.12-213.54 5.13-9.02 25.85 14.92 11.11-19.24-25.98-15 24.91-43.78z" fill="#b3b3b3" fill-rule="evenodd" stroke="#000" stroke-width="8.4452"/>
    <path d="m135.71 642.36 150-250 8.58 7.15-115.72 223.57-42.86 23.57" fill="#fff" fill-opacity=".4104" fill-rule="evenodd" stroke="none"/>
    <path d="m313.08 328.01-25.18 43.63-23.36-13.49-12.87 18.23 25.12 14.5-6.63 11.48-130.93 198.21-2.68 44.64 42.25-21.8 110.12-213.54 5.13-9.02 25.85 14.92 11.11-19.24-25.98-15 24.91-43.78z" fill="none" stroke="#000" stroke-width="8.4452"/>
   </g>
  </g>
 </g>
</svg>
