<?xml version="1.0" encoding="UTF-8"?>
<svg width="50.665mm" height="87.307mm" version="1.1" viewBox="0 0 50.665 87.307" xmlns="http://www.w3.org/2000/svg">
 <path d="m10.48 76.38s4.1125-9.5184 7.6081-21.15c0.21981-0.73135 0.43715-1.471 0.65091-2.2173 1.8746-6.5444 3.2514-10.254 4.8443-16.091 0.0861-0.31222 0.0299-0.56625-0.12462-0.56453-7.6872 0.62754-13.589 3.4745-21.726 3.7723 1.703-6.4665 3.4135-12.931 5.1326-19.393 1.7222-6.4741 3.4531-12.946 5.1938-19.415h20.636c-0.50209 4.4286-2.8811 8.8409-4.8477 13.266-1.4756 3.3206-3.2485 9.2746-2.7629 9.9961 0.47583 0.70698 4.8994 0.91223 9.0275 0.0651 6.5347-1.3412 13.745-3.3352 13.745-3.3352l-36.611 61.914z" fill="#d4aa00" fill-opacity=".75" stroke="#000" stroke-linecap="square" stroke-opacity="0" stroke-width="2.6458"/>
</svg>
