<?xml version="1.0" encoding="UTF-8"?>
<svg width="550.45" height="762.17" enable-background="new 0 0 1391 1920" version="1.1" viewBox="0 0 550.45 762.17" xml:space="preserve" xmlns="http://www.w3.org/2000/svg">



<g transform="translate(-756.07 -1141.8)">
	<path d="m1285 1147.6c3.84-0.48 8.15-1.71 11.64 0.6899 4.84 2.8501 6 10.3 2.11 14.39-2.86 2.86-6.3201 5.01-9.4 7.62-26.85 21.42-51.53 46.41-68.58 76.46-10.28 18.01-17.52 37.82-20.75 58.33-4.2101 24.96-2.35 50.58 2.47 75.32 8.67 43.53 26 84.59 40.72 126.28 14.56 40.9 27.56 83.41 27.09 127.26-0.5 13.01-0.27 26.08-2.01 39.02-4.25 38.81-17.8 76.53-39 109.3-20.49 31.75-48.12 58.88-80.27 78.74-36.28 22.51-78.34 35.62-120.99 37.6-40.98 2.11-82.44-5.8101-119.65-23.12-35.02-16.18-66.22-40.5-90.57-70.4-33.93-41.53-54.54-94.07-56.73-147.71 1.24-8.5801 1.34-17.31-0.01-25.87 0.7-23.09 5.35-46.01 12.53-67.94 26.18-74.5 70-141.89 122.58-200.44 52.3-58.06 113.99-107.82 182.44-145.6 63.9-35.31 134.01-59.71 206.38-69.93m-55.01 20.44c-58.15 14.36-113.9 37.93-165.33 68.57-64.53 38.42-122.44 87.68-171.51 144.47-47.46 55.21-87.01 118.01-110.95 187.02-18.51 56.53-15.55 119.75 8.42 174.22 14.79 33.93 37.5 64.34 65.64 88.37 27.18 23.3 59.56 40.47 94.08 49.95 39.99 10.95 82.76 11.59 123.05 1.74 36.25-8.79 70.39-26.11 98.97-50.08 26.83-22.37 48.76-50.58 63.89-82.06 16.25-33.62 24.31-71 24.17-108.3 1.08-22.77-1.5801-45.57-6.76-67.73-9.37-40.96-25.58-79.86-39.51-119.38-12.92-36.11-24.38-73.34-26.31-111.88-1.13-24.52 2.17-49.35 10.77-72.39 11.58-31.71 32.22-59.35 56.26-82.73 11.15-11.19 23.56-20.97 35.7-31.03-20.44 2.1598-40.6 6.4898-60.58 11.24z" fill="#1f1917" stroke="#000" stroke-width="10"/>
	<path d="m1230 1168.1c19.98-4.75 40.14-9.08 60.58-11.24-12.14 10.06-24.55 19.84-35.7 31.03-24.04 23.38-44.68 51.02-56.26 82.73-8.6 23.04-11.9 47.87-10.77 72.39 1.9301 38.54 13.39 75.77 26.31 111.88 13.93 39.52 30.14 78.42 39.51 119.38 5.1799 22.16 7.84 44.96 6.76 67.73 0.1399 37.3-7.92 74.68-24.17 108.3-15.13 31.48-37.06 59.69-63.89 82.06-28.58 23.97-62.72 41.29-98.97 50.08-40.29 9.85-83.06 9.21-123.05-1.74-34.52-9.4801-66.9-26.65-94.08-49.95-28.14-24.03-50.85-54.44-65.64-88.37-23.97-54.47-26.93-117.69-8.42-174.22 23.94-69.01 63.49-131.81 110.95-187.02 49.07-56.79 106.98-106.05 171.51-144.47 51.43-30.64 107.18-54.21 165.33-68.57m-177.56 100.37c-60.28 38.64-115.68 85.19-162.91 139.07-25 28.73-47.61 59.68-65.89 93.13-18.61 34.19-32.73 71.22-38.13 109.92-2.47 19.45-3.67 39.35 0.2 58.71 6.86 34.66 22.98 66.95 43.51 95.49 20.66 28.37 46.36 53.49 76.85 71.13 15.91 8.99 33.06 16.31 51.17 19.33-6.18-5.66-12.61-11.03-18.61-16.88-26.33-25.1-49.15-54.3-64.69-87.31-16.91-35.59-24.56-75.45-22.36-114.77 2.13-40.4 13.56-79.84 30.06-116.62 16.09-35.79 36.84-69.33 60.14-100.85 47.03-63.19 103.71-118.7 164.59-168.47 12.99-10.76 26.6-20.76 39.77-31.29-32.81 13.22-63.83 30.55-93.7 49.41m145.78 161.45c0.3201 5.33 1.3 10.57 2.12 15.84 6.51 44.7 9.3301 90.09 5.89 135.19-3.01 43.22-11.26 86.26-26.45 126.9-12.24 32.37-28.88 63.26-50.72 90.19-21.48 26.93-47.89 49.84-77.39 67.61-6.51 4.02-13.37 7.42-19.88 11.43 12.16 0.58 24.32-0.9901 36.29-2.9801 34.84-6.45 67.92-22.13 94.86-45.15 24.71-20.84 44.67-47.03 59.04-75.94 18.04-36.57 27.47-77.24 27.93-117.99 0.37-13.6 0.6-27.26-1.25-40.77-4.86-39.34-18.71-76.74-32.22-113.76-6.3999-16.74-12.14-33.72-18.22-50.57z" fill="#667bb4"/>
	<path d="m1052.4 1268.4c29.87-18.86 60.89-36.19 93.7-49.41-13.17 10.53-26.78 20.53-39.77 31.29-60.88 49.77-117.56 105.28-164.59 168.47-23.3 31.52-44.05 65.06-60.14 100.85-16.5 36.78-27.93 76.22-30.06 116.62-2.2 39.32 5.45 79.18 22.36 114.77 15.54 33.01 38.36 62.21 64.69 87.31 6 5.85 12.43 11.22 18.61 16.88-18.11-3.02-35.26-10.34-51.17-19.33-30.49-17.64-56.19-42.76-76.85-71.13-20.53-28.54-36.65-60.83-43.51-95.49-3.87-19.36-2.67-39.26-0.2-58.71 5.4-38.7 19.52-75.73 38.13-109.92 18.28-33.45 40.89-64.4 65.89-93.13 47.23-53.88 102.63-100.43 162.91-139.07z" fill="#fff"/>
	<path d="m1198.2 1429.9c6.0801 16.85 11.82 33.83 18.22 50.57 13.51 37.02 27.36 74.42 32.22 113.76 1.85 13.51 1.62 27.17 1.25 40.77-0.4601 40.75-9.89 81.42-27.93 117.99-14.37 28.91-34.33 55.1-59.04 75.94-26.94 23.02-60.02 38.7-94.86 45.15-11.97 1.99-24.13 3.5601-36.29 2.9801 6.51-4.01 13.37-7.41 19.88-11.43 29.5-17.77 55.91-40.68 77.39-67.61 21.84-26.93 38.48-57.82 50.72-90.19 15.19-40.64 23.44-83.68 26.45-126.9 3.4401-45.1 0.62-90.49-5.89-135.19-0.8201-5.2698-1.8001-10.51-2.1201-15.84z" fill="#495678"/>
	<path d="m761.08 1631.6c1.35 8.5599 1.25 17.29 0.01 25.87-0.57-8.6099-0.6-17.27-0.01-25.87z" fill="#020101"/>
</g>
</svg>
