<?xml version="1.0" encoding="UTF-8"?>
<svg width="216" height="182" version="1.1" viewBox="0 0 57.15 48.154" xmlns="http://www.w3.org/2000/svg">
 <g transform="translate(-34.333 -50.01)">
  <g transform="translate(-42.092,46.21)" fill="none" stroke="#000" stroke-width="2.6458">
   <path d="m93.423 26.324c2.9296 0 5.313 2.3834 5.313 5.313s-2.3834 5.313-5.313 5.313-5.313-2.3834-5.313-5.313 2.3834-5.313 5.313-5.313z"/>
   <path d="m105 17.67h19.981v27.792h-19.981m20.022-7.6959 6.6887-1.3945v-9.8914l-6.6887-1.3941m-20.022-7.4161h-19.981v27.792h19.981m-20.022-7.6959-6.6887-1.3945v-9.8914l6.6887-1.3941"/>
   <path d="m116.58 26.324c-2.9296 0-5.313 2.3834-5.313 5.313s2.3834 5.313 5.313 5.313 5.313-2.3834 5.313-5.313-2.3834-5.313-5.313-5.313z"/>
  </g>
 </g>
</svg>
