<?xml version="1.0" encoding="UTF-8"?>
<svg width="216" height="182" version="1.1" viewBox="0 0 57.15 48.154" xmlns="http://www.w3.org/2000/svg">
 <g transform="translate(-110.7 -83.597)">
  <g transform="translate(34.275,83.656)">
   <path d="m98.65 33.808c1.0962 0 1.9844-0.88847 1.9844-1.9844v-3.3073c0-1.0959-0.88821-1.9844-1.9844-1.9844s-1.9844 0.88847-1.9844 1.9844v3.3073c0 1.0959 0.88821 1.9844 1.9844 1.9844z"/>
   <path d="m111.35 33.808c-1.0962 0-1.9844-0.88847-1.9844-1.9844v-3.3073c0-1.0959 0.88821-1.9844 1.9844-1.9844s1.9844 0.88847 1.9844 1.9844v3.3073c0 1.0959-0.88821 1.9844-1.9844 1.9844z"/>
   <path d="m115.56 10.864v8.3248m8.3618 27.583h-18.922m18.922 0v-10.96c0-10.434-8.4886-18.922-18.922-18.922m0 23.4h18.921m-8.3382-38.302c-1.2229 0-2.3317 0.49742-3.1349 1.3006-0.80314 0.80314-1.3006 1.912-1.3006 3.1349s0.49742 2.3317 1.3006 3.1349c0.80315 0.80314 1.912 1.3006 3.1349 1.3006s2.3317-0.49742 3.1349-1.3006c0.80314-0.80314 1.3006-1.912 1.3006-3.1349s-0.49742-2.3317-1.3006-3.1349c-0.80314-0.80314-1.912-1.3006-3.1349-1.3006zm-21.144 8.8767v8.3248m-8.3618 27.583h18.922m-18.922 0v-10.96c0-10.434 8.4886-18.922 18.922-18.922m0 23.4h-18.921m8.3381-38.302c1.2229 0 2.3317 0.49742 3.1349 1.3006 0.80314 0.80314 1.3006 1.912 1.3006 3.1349s-0.49742 2.3317-1.3006 3.1349c-0.80314 0.80314-1.912 1.3006-3.1349 1.3006s-2.3317-0.49742-3.1349-1.3006c-0.80314-0.80314-1.3006-1.912-1.3006-3.1349s0.49742-2.3317 1.3006-3.1349c0.80314-0.80314 1.912-1.3006 3.1349-1.3006z" fill="none" stroke="#000" stroke-linecap="square" stroke-width="2.6458"/>
  </g>
 </g>
</svg>
