<?xml version="1.0" encoding="UTF-8"?>
<svg width="202" height="151" version="1.1" viewBox="0 0 53.446 39.952" xmlns="http://www.w3.org/2000/svg">
 <g transform="translate(-260.46 -129.27)">
  <g transform="translate(523.99 78.608)" fill="none" stroke="#000" stroke-width="2.2973">
   <g transform="translate(3.8353 -1.5903)">
    <path d="m-263.83 90.705h14.054v-37.303h-14.054z" stroke-linecap="round"/>
    <g>
     <path d="m-264.83 84.499h5.3359"/>
     <path d="m-264.83 78.276h5.3359"/>
     <path d="m-264.83 72.054h5.3359"/>
     <path d="m-264.83 65.831h5.3359"/>
     <path d="m-264.83 59.609h5.3359"/>
     <path d="m-254.12 84.499h5.3359"/>
     <path d="m-254.12 78.276h5.3359"/>
     <path d="m-254.12 72.054h5.3359"/>
     <path d="m-254.12 65.831h5.3359"/>
     <path d="m-254.12 59.609h5.3359"/>
    </g>
   </g>
   <g transform="translate(36.16 -1.5903)">
    <path d="m-263.83 90.705h14.054v-37.303h-14.054z" stroke-linecap="round"/>
    <g>
     <path d="m-264.83 84.499h5.3359"/>
     <path d="m-264.83 78.276h5.3359"/>
     <path d="m-264.83 72.054h5.3359"/>
     <path d="m-264.83 65.831h5.3359"/>
     <path d="m-264.83 59.609h5.3359"/>
     <path d="m-254.12 84.499h5.3359"/>
     <path d="m-254.12 78.276h5.3359"/>
     <path d="m-254.12 72.054h5.3359"/>
     <path d="m-254.12 65.831h5.3359"/>
     <path d="m-254.12 59.609h5.3359"/>
    </g>
   </g>
  </g>
 </g>
</svg>
