<?xml version="1.0" encoding="UTF-8"?>
<svg width="202" height="151" version="1.1" viewBox="0 0 53.446 39.952" xmlns="http://www.w3.org/2000/svg">
 <g transform="translate(-129.35 -75.023)" fill="none" stroke="#000">
  <g transform="translate(114.55 34.145)">
   <path d="m31.868 55.667h-12.083c-0.49928 0-0.90528-0.40601-0.90528-0.9053v-11.655c0-0.49928 0.406-0.90529 0.90528-0.90529h12.083z" stroke-width="2.6458"/>
   <g stroke-width="2.6458">
    <path d="m19.799 59.165h11.127"/>
    <path d="m19.799 62.662h11.127"/>
    <path d="m19.799 66.16h11.127"/>
   </g>
   <g transform="matrix(.74247 0 0 .74247 -3.573 -52.525)" stroke-width="3.5636">
    <path d="m47.789 164.56h-17.632v5.8557h-1.8947v7.2326h21.42v-7.2326h-1.8936z"/>
    <path d="m30.157 170.42h17.632"/>
   </g>
  </g>
  <g transform="matrix(-1 0 0 1 229.93 34.145)">
   <path d="m64.193 55.667h-12.083c-0.49928 0-0.90528-0.40601-0.90528-0.9053v-11.655c0-0.49928 0.406-0.90529 0.90528-0.90529h12.083z" stroke-width="2.6458"/>
   <g stroke-width="2.6458">
    <path d="m52.125 59.165h11.127"/>
    <path d="m52.125 62.662h11.127"/>
    <path d="m52.125 66.16h11.127"/>
   </g>
   <g transform="matrix(.74247 0 0 .74247 28.752 -52.525)" stroke-width="3.5636">
    <path d="m47.789 164.56h-17.632v5.8557h-1.8947v7.2326h21.42v-7.2326h-1.8936z"/>
    <path d="m30.157 170.42h17.632"/>
   </g>
  </g>
 </g>
</svg>
