<?xml version="1.0" encoding="UTF-8"?>
<svg width="400" height="212" version="1.1" viewBox="0 0 105.83 56.092" xmlns="http://www.w3.org/2000/svg">
 <g transform="translate(-52.626 -121.64)">
  <g transform="translate(342.79 111.8)" fill="none" stroke="#000" stroke-width="2.6458">
   <path d="m-193.38 56.972v-7.0152m1e-5 -38.794h-43.718-43.998m92.867 12.26v26.534h-10.457v-26.569h-17.523m17.521 20.873h10.456zm5.3084-18.639c3.9859 0 7.2296-3.2437 7.2296-7.2296s-3.2437-7.2296-7.2296-7.2296c-3.9859 0-7.2296 3.2437-7.2296 7.2296s3.2437 7.2296 7.2296 7.2296zm-43.858 36.609h3.5048v-18.202h17.524v-32.866m-64.887 45.809v-7.0152m-5.1508-26.534v26.534h10.457v-26.569h17.523m-17.521 20.873h-10.456zm-5.3084-18.639c-3.9859 0-7.2296-3.2437-7.2296-7.2296s3.2437-7.2296 7.2296-7.2296c3.9859 0 7.2296 3.2437 7.2296 7.2296s-3.2437 7.2296-7.2296 7.2296zm43.858 36.609h-3.5048v-18.202h-17.524v-32.866"/>
   <path d="m-227.23 20.124h-20.03l10.015 18.018z"/>
  </g>
 </g>
</svg>
