<?xml version="1.0" encoding="UTF-8"?>
<svg width="400" height="212" version="1.1" viewBox="0 0 105.83 56.092" xmlns="http://www.w3.org/2000/svg">
 <g transform="translate(-385.07 -132.7)">
  <path d="m441.97 170.88v14.125s-0.84868 1.9878-3.9756 1.9878-3.9756-1.9878-3.9756-1.9878v-14.125m-2.5066-13.264c-4.5956 0-8.3344-3.7388-8.3344-8.3344s3.7388-8.3344 8.3344-8.3344h12.965c4.5955 0 8.3344 3.7388 8.3344 8.3344s-3.7388 8.3344-8.3344 8.3344zm6.4823 13.281v-13.198m0-16.999v-6.6838m33.075 11.661h-8.5151m8.6394-6.4823h-8.6485m11.485 39.357 4.1341-1.9513v-3.4727m-4.1341-4.7956-4.1341 1.9513v2.8443m4.1341-4.7956 4.1341 1.9513v2.8443m-4.1341-26.359v21.564m-0.0529-30.045c-2.3424 0-4.248 1.9056-4.248 4.248 0 2.3424 1.9056 4.248 4.248 4.248s4.248-1.9056 4.248-4.248c0-2.3424-1.9056-4.248-4.248-4.248zm-35.983 32.611h5.669c8.8876 0 18.877-7.7192 18.877-18.606v-18.275h-24.546m6.4823 23.6c4.5956 0 8.3344-3.7388 8.3344-8.3344s-3.7388-8.3344-8.3344-8.3344h-12.965c-4.5956 0-8.3344 3.7388-8.3344 8.3344s3.7388 8.3344 8.3344 8.3344zm-6.4823 13.281v-13.198m0-16.999v-6.6838m-33.075 11.661h8.5151m-8.6394-6.4823h8.6485m-11.485 39.357-4.1341-1.9513v-3.4727m4.1341-4.7956 4.1341 1.9513v2.8443m-4.1341-4.7956-4.1341 1.9513v2.8443m4.1341-26.359v21.564m0.0529-30.045c2.3424 0 4.248 1.9056 4.248 4.248 0 2.3424-1.9056 4.248-4.248 4.248-2.3424 0-4.248-1.9056-4.248-4.248 0-2.3424 1.9056-4.248 4.248-4.248zm35.983 32.611h-5.669c-8.8876 0-18.877-7.7192-18.877-18.606v-18.275h24.546" fill="none" stroke="#000" stroke-width="2.6458"/>
 </g>
</svg>
