<?xml version="1.0" encoding="UTF-8"?>
<svg width="400" height="212" version="1.1" viewBox="0 0 105.83 56.092" xmlns="http://www.w3.org/2000/svg">
 <g transform="translate(-212.4 -149.28)">
  <g transform="translate(629.39 147.99)" fill="none" stroke="#000" stroke-width="2.6458">
   <path d="m-330.66 10.4 6.0548 16.15-10.768 3.9699-3.2695-8.8684c4.5858-0.74803 8.0976-4.7355 8.0976-9.5297 0-4.7942-3.5118-8.7817-8.0976-9.5297m-25.422 48.369h3.3238c0.33018 0 0.66346-0.17557 0.88649-0.41341 0.23852-0.25436 0.38034-0.62582 0.38034-0.97453v-11.927m-4.5907 0h23.339c0.55406 0 1.0048-0.45075 1.0048-1.0045v-34.023h-24.344m42.911 48.866 0.86043-7.5926-6.4439 2.3762zm0.34053-12.25-8.9265 3.292m7.4163-7.3874c-2.9754 1.0973-5.9508 2.1946-8.9262 3.2919m7.4152-7.3874c-2.9754 1.0973-5.9508 2.1946-8.9262 3.292m-64.709-23.936-6.0548 16.15 10.768 3.9699 3.2695-8.8684c-4.5858-0.74803-8.0976-4.7355-8.0976-9.5297 0-4.7942 3.5118-8.7817 8.0976-9.5297m25.422 48.369h-3.3238c-0.33018 0-0.66346-0.17557-0.88649-0.41341-0.23852-0.25436-0.38034-0.62582-0.38034-0.97453v-11.927m4.5907 0h-23.339c-0.55405 0-1.0048-0.45075-1.0048-1.0045v-34.023h24.344m-42.911 48.866-0.86043-7.5926 6.4439 2.3762zm-0.34052-12.25 8.9265 3.292m-7.4163-7.3874c2.9754 1.0973 5.9508 2.1946 8.9262 3.2919m-7.4152-7.3874c2.9754 1.0973 5.9508 2.1946 8.9262 3.292"/>
   <g transform="translate(-.63064)" stroke-linecap="square">
    <path d="m-368.83 9.9157v21.305"/>
    <path d="m-358.04 9.9157h9.4475v10.571h-9.3927v10.711h9.1702"/>
    <path d="m-368.83 20.486h-9.3927l-0.0548-10.571"/>
   </g>
  </g>
 </g>
</svg>
